<?xml version="1.0" encoding="UTF-8"?><svg id="logosandtypes_com" xmlns="http://www.w3.org/2000/svg" viewBox="0 0 150 150"><defs><style>.cls-1{fill:#248bcd;}.cls-2{fill:none;}</style></defs><path class="cls-2" d="M0,0H150V150H0V0Z"/><path class="cls-1" d="M47.6,54.99c2.26-4.6,4.5-9.16,6.84-13.92,8,15.79,15.79,31.56,23.7,47.38,3.04,5.96,4.98,12.56,4.58,19.3-.72,25.17-30.02,40.07-50.53,25.27-15.72-10.59-18.35-34.34-5.32-48.13,2.03,4.09,4,8.07,5.96,12.04-5.54,11.03-.62,24.94,11.42,28.71,13.18,4.97,27.69-6.7,26.34-20.49-.14-2.8-.99-5.47-2.26-8.01-6.95-14.03-13.84-28.08-20.73-42.14Z"/><path class="cls-1" d="M62.68,24.56c2.35-4.79,4.69-9.56,7.15-14.56,21.48,42.85,42.86,85.49,64.3,128.25h-14.52c-18.94-37.82-37.92-75.73-56.92-113.69Z"/></svg>