<?xml version="1.0" encoding="UTF-8"?><svg id="logosandtypes_com" xmlns="http://www.w3.org/2000/svg" xmlns:xlink="http://www.w3.org/1999/xlink" viewBox="0 0 150 150"><defs><style>.cls-1{fill:url(#linear-gradient);fill-rule:evenodd;}.cls-2{fill:none;}</style><linearGradient id="linear-gradient" x1="-870.07" y1="606.24" x2="-866.05" y2="606.24" gradientTransform="translate(21193.7 19475.4) scale(24.33 -32)" gradientUnits="userSpaceOnUse"><stop offset="0" stop-color="#237bff"/><stop offset="1" stop-color="#64badb"/></linearGradient></defs><g id="Layer_2"><path id="Layer_3" class="cls-2" d="M0,0H150V150H0V0Z"/></g><path class="cls-1" d="M28.38,11.57c-1.78,0-2.85,1.78-1.78,3.21l29.62,51.39c2.14,3.93,5,7.14,8.21,9.63-3.21,2.85-6.07,6.07-8.21,9.63l-29.62,51.39c-1.07,1.43,0,3.21,1.78,3.21h59.24c13.2,0,24.98-6.78,31.4-18.2,6.42-11.42,6.42-24.98,0-36.4-2.14-3.93-5-7.14-8.21-9.63,3.21-2.85,6.07-6.07,8.21-9.63,6.42-11.42,6.42-24.98,0-36.4-6.42-11.42-18.2-18.2-31.4-18.2H28.38Zm42.46,46.03l-16.06-27.48c-.36-.71,0-1.78,.71-1.78h32.12c7.14,0,13.2,3.57,16.77,9.63,3.57,6.07,3.57,13.2,0,19.63-3.57,6.07-9.99,9.63-16.77,9.63-7.14,0-13.2-3.57-16.77-9.63Zm-16.06,63.88l16.06-27.83c3.57-6.07,9.63-9.63,16.77-9.63s13.2,3.57,16.77,9.63c1.78,3.21,2.5,6.42,2.5,9.63,0,3.57-1.07,6.78-2.85,9.99-3.57,6.07-10.35,9.28-17.13,9.28h-31.4c-.71,.71-1.07-.36-.71-1.07Z"/></svg>