<?xml version="1.0" encoding="UTF-8"?><svg id="logosandtypes_com" xmlns="http://www.w3.org/2000/svg" viewBox="0 0 150 150"><defs><style>.cls-1{fill:#00aae7;}.cls-2{fill:none;}</style></defs><path id="Layer_3" class="cls-2" d="M0,0H150V150H0V0Z"/><path class="cls-1" d="M144.01,78.86l-21.29,46.58H58.39c-27.28-.22-49.69-22.4-49.69-50.13S31.11,25.4,58.62,25.4h69.43l-13.09,26.84h22.18l-13.31,26.4,20.19,.22Zm-20.85-17.97H61.94c-15.75,0-28.61,12.42-28.61,27.95,0,6.21,2.22,12.2,5.77,16.86-.22-1.11-.22-2.44-.22-3.55,0-12.87,10.43-23.29,23.29-23.29h51.68l9.32-17.97Zm-105.81,14.42c0,10.43,3.99,20.19,10.43,27.51-1.77-4.44-2.88-9.09-2.88-13.97,0-20.19,16.64-36.38,37.04-36.38h43.25l8.87-18.19H58.62c-22.85-.22-41.26,18.41-41.26,41.04Zm113.35,12.2H62.16c-7.99,0-14.64,6.65-14.64,14.64s6.65,14.64,14.64,14.64h55.23l13.31-29.28Z"/></svg>