<svg id="logosandtypes_com" xmlns="http://www.w3.org/2000/svg" viewBox="0 0 150 150.2" enable-background="new 0 0 150 150.2"><style>.st2{fill-rule:evenodd;clip-rule:evenodd;fill:#fff}</style><g id="Layer_2"><path id="Layer_3" d="M0 .2h150v150H0V.2z" fill="none"/></g><g id="Depfu"><defs><filter id="Adobe_OpacityMaskFilter" filterUnits="userSpaceOnUse" x="13.7" y="72.8" width="120.1" height="68.1"><feColorMatrix values="1 0 0 0 0 0 1 0 0 0 0 0 1 0 0 0 0 0 1 0"/></filter></defs><mask maskUnits="userSpaceOnUse" x="13.7" y="72.8" width="120.1" height="68.1" id="mask-2_3_"><g filter="url(#Adobe_OpacityMaskFilter)"><path id="path-1_3_" class="st2" d="M133.8 140.9h-120V15h120z"/></g></mask><path id="Fill-1" d="M13.8 72.8v16.5c-.3 3.4 1 6.9 4.1 9.1l28.4 20.5 29.8 20.2c3.5 2.4 8.2 2.4 11.7-.1l30.4-21.1c11.3-7.9 16.5-18.9 15.5-29.6V74.7c-.8 9.1-6 17.9-15.5 24.6l-30.4 21.1c-3.5 2.4-8.2 2.5-11.7.1l-29.8-20.2-28.4-20.6c-2.4-1.7-3.8-4.3-4.1-6.9" mask="url(#mask-2_3_)" fill-rule="evenodd" clip-rule="evenodd" fill="#00f"/><defs><filter id="Adobe_OpacityMaskFilter_1_" filterUnits="userSpaceOnUse" x="13.7" y="35.7" width="120.1" height="68.1"><feColorMatrix values="1 0 0 0 0 0 1 0 0 0 0 0 1 0 0 0 0 0 1 0"/></filter></defs><mask maskUnits="userSpaceOnUse" x="13.7" y="35.7" width="120.1" height="68.1" id="Fill-3_1_"><g filter="url(#Adobe_OpacityMaskFilter_1_)"><path class="st2" d="M133.8 140.9h-120V15h120z"/></g></mask><path id="Fill-3" d="M13.8 35.7v16.5c-.3 3.4 1 6.9 4.1 9.1l28.4 20.5L76.1 102c3.5 2.4 8.2 2.4 11.7-.1l30.4-21.1c11.3-7.9 16.5-18.9 15.5-29.6V37.6c-.8 9.1-6 17.9-15.5 24.6L87.8 83.3c-3.5 2.4-8.2 2.5-11.7.1L46.3 63.2 17.9 42.7c-2.4-1.8-3.8-4.3-4.1-7" mask="url(#Fill-3_1_)" fill-rule="evenodd" clip-rule="evenodd" fill="#00f"/><defs><filter id="Adobe_OpacityMaskFilter_2_" filterUnits="userSpaceOnUse" x="42" y="15" width="71.4" height="30.2"><feColorMatrix values="1 0 0 0 0 0 1 0 0 0 0 0 1 0 0 0 0 0 1 0"/></filter></defs><mask maskUnits="userSpaceOnUse" x="42" y="15" width="71.4" height="30.2" id="mask-2_1_"><g filter="url(#Adobe_OpacityMaskFilter_2_)"><path id="path-1_1_" class="st2" d="M133.8 140.9h-120V15h120z"/></g></mask><path id="Fill-4" d="M106.1 24.2l-5.5-3.8c-12.6-7.4-25.6-7-38.7.1L42.5 33.9c-.7.5-.7 1.2 0 1.7L56 45.2l8.7-6c-.1.1-.2.1-.4.2l.9-.6-.5.4c13.1-7.1 25.9-7.5 38.4-.3l-.3-.2.3.2c.1.1.2.1.3.2l5.5 3.8c.2.1.4.3.6.4 6.1-6.2 5-13.5-3.4-19.1" mask="url(#mask-2_1_)" fill-rule="evenodd" clip-rule="evenodd" fill="#00f"/></g></svg>